<svg fill="none" height="246" viewBox="0 0 922 246" width="922" xmlns="http://www.w3.org/2000/svg"><path d="m283.348 190.312c-8.2 0-15.416-1.585-21.648-4.756-6.232-3.28-11.043-7.817-14.432-13.612s-5.084-12.519-5.084-20.172v-40.508c0-7.653 1.695-14.3773 5.084-20.172s8.2-10.2773 14.432-13.448 13.448-4.756 21.648-4.756c8.091 0 15.252 1.5307 21.484 4.592s11.043 7.38 14.432 12.956 5.084 12.027 5.084 19.352c0 .547-.219 1.039-.656 1.476-.328.328-.765.492-1.312.492l-15.088.82c-1.312 0-1.968-.601-1.968-1.804 0-6.451-2.023-11.644-6.068-15.58-3.936-3.936-9.239-5.904-15.908-5.904s-12.027 1.968-16.072 5.904-6.068 9.129-6.068 15.58v41.82c0 6.341 2.023 11.48 6.068 15.416s9.403 5.904 16.072 5.904 11.972-1.913 15.908-5.74c4.045-3.936 6.068-9.129 6.068-15.58 0-1.203.656-1.804 1.968-1.804l15.088.656c.547 0 .984.164 1.312.492.437.328.656.711.656 1.148 0 7.435-1.695 13.995-5.084 19.68-3.389 5.576-8.2 9.895-14.432 12.956s-13.393 4.592-21.484 4.592zm127.493-1.312c-1.093 0-1.858-.492-2.296-1.476l-21.648-47.232c-.218-.437-.546-.656-.984-.656h-19.68c-.546 0-.82.273-.82.82v46.576c0 .547-.218 1.039-.656 1.476-.328.328-.765.492-1.312.492h-15.088c-.546 0-1.038-.164-1.476-.492-.328-.437-.492-.929-.492-1.476v-110.864c0-.5467.164-.984.492-1.312.438-.4373.93-.656 1.476-.656h45.1c6.67 0 12.574 1.4213 17.712 4.264 5.139 2.7333 9.13 6.6693 11.972 11.808 2.843 5.0293 4.264 10.824 4.264 17.384 0 7.544-1.968 13.995-5.904 19.352-3.826 5.248-9.184 8.911-16.072 10.988-.218 0-.382.109-.492.328-.109.219-.109.437 0 .656l23.124 47.724c.219.437.328.765.328.984 0 .875-.601 1.312-1.804 1.312zm-44.608-98.4c-.546 0-.82.2733-.82.82v32.636c0 .547.274.82.82.82h24.6c5.248 0 9.458-1.531 12.628-4.592 3.28-3.171 4.92-7.325 4.92-12.464s-1.64-9.2933-4.92-12.464c-3.17-3.1707-7.38-4.756-12.628-4.756zm108.051 98.236c-.547 0-1.039-.164-1.476-.492-.328-.437-.492-.929-.492-1.476v-43.952c0-.437-.055-.765-.164-.984l-33.784-65.436c-.219-.4373-.328-.7653-.328-.984 0-.8747.601-1.312 1.804-1.312h16.236c1.093 0 1.858.492 2.296 1.476l22.96 45.756c.328.437.656.437.984 0l23.124-45.756c.546-.984 1.312-1.476 2.296-1.476h16.4c.765 0 1.257.2187 1.476.656.328.4373.328.984 0 1.64l-33.948 65.436c-.219.437-.328.765-.328.984v43.952c0 .547-.219 1.039-.656 1.476-.328.328-.766.492-1.312.492zm114.938-114.8c6.888 0 12.956 1.4213 18.204 4.264s9.293 6.888 12.136 12.136c2.952 5.1387 4.428 11.097 4.428 17.876 0 6.669-1.476 12.573-4.428 17.712s-7.161 9.129-12.628 11.972c-5.357 2.733-11.589 4.1-18.696 4.1h-26.24c-.547 0-.82.273-.82.82v44.116c0 .547-.219 1.039-.656 1.476-.328.328-.765.492-1.312.492h-15.088c-.547 0-1.039-.164-1.476-.492-.328-.437-.492-.929-.492-1.476v-111.028c0-.5467.164-.984.492-1.312.437-.4373.929-.656 1.476-.656zm-2.788 52.644c5.576 0 10.059-1.64 13.448-4.92s5.084-7.599 5.084-12.956c0-5.467-1.695-9.8947-5.084-13.284s-7.872-5.084-13.448-5.084h-24.436c-.547 0-.82.2733-.82.82v34.604c0 .547.273.82.82.82zm131.319-52.48c.547 0 .984.2187 1.312.656.438.328.656.7653.656 1.312v12.628c0 .5467-.218 1.0387-.656 1.476-.328.328-.765.492-1.312.492h-30.176c-.546 0-.82.2733-.82.82v95.448c0 .547-.218 1.039-.656 1.476-.328.328-.765.492-1.312.492h-15.088c-.546 0-1.038-.164-1.476-.492-.328-.437-.492-.929-.492-1.476v-95.448c0-.5467-.273-.82-.82-.82h-29.028c-.546 0-1.038-.164-1.476-.492-.328-.4373-.492-.9293-.492-1.476v-12.628c0-.5467.164-.984.492-1.312.438-.4373.93-.656 1.476-.656zm54.275 116.44c-8.2 0-15.47-1.64-21.812-4.92-6.341-3.389-11.261-8.145-14.76-14.268-3.389-6.123-5.084-13.175-5.084-21.156v-37.392c0-7.872 1.75-14.8147 5.248-20.828 3.499-6.1227 8.364-10.824 14.596-14.104 6.342-3.3893 13.612-5.084 21.812-5.084 8.31 0 15.58 1.6947 21.812 5.084 6.342 3.28 11.262 7.9813 14.76 14.104 3.499 6.0133 5.248 12.956 5.248 20.828v37.392c0 7.981-1.749 15.033-5.248 21.156-3.498 6.123-8.418 10.879-14.76 14.268-6.232 3.28-13.502 4.92-21.812 4.92zm0-16.4c6.888 0 12.41-2.132 16.564-6.396 4.155-4.264 6.232-9.895 6.232-16.892v-38.212c0-7.107-2.077-12.792-6.232-17.056-4.154-4.264-9.676-6.396-16.564-6.396-6.778 0-12.245 2.132-16.4 6.396-4.154 4.264-6.232 9.949-6.232 17.056v38.212c0 6.997 2.078 12.628 6.232 16.892 4.155 4.264 9.622 6.396 16.4 6.396zm101.696 16.072c-8.528 0-15.963-1.367-22.304-4.1-6.342-2.733-11.262-6.56-14.76-11.48-3.39-4.92-5.084-10.715-5.084-17.384v-4.1c0-.547.164-.984.492-1.312.437-.437.929-.656 1.476-.656h14.596c.546 0 .984.219 1.312.656.437.328.656.765.656 1.312v3.116c0 5.029 2.241 9.239 6.724 12.628 4.482 3.28 10.605 4.92 18.368 4.92 6.669 0 11.698-1.421 15.088-4.264 3.389-2.843 5.084-6.505 5.084-10.988 0-3.061-.93-5.631-2.788-7.708-1.859-2.187-4.538-4.155-8.036-5.904-3.39-1.749-8.528-3.936-15.416-6.56-7.763-2.843-14.05-5.521-18.86-8.036-4.811-2.515-8.856-5.904-12.136-10.168-3.171-4.373-4.756-9.785-4.756-16.236 0-9.6213 3.498-17.22 10.496-22.796 6.997-5.576 16.345-8.364 28.044-8.364 8.2 0 15.416 1.4213 21.648 4.264 6.341 2.8427 11.261 6.8333 14.76 11.972 3.498 5.0293 5.248 10.879 5.248 17.548v2.788c0 .547-.219 1.039-.656 1.476-.328.328-.766.492-1.312.492h-14.76c-.547 0-1.039-.164-1.476-.492-.328-.437-.492-.929-.492-1.476v-1.804c0-5.139-2.132-9.4573-6.396-12.956-4.155-3.608-9.95-5.412-17.384-5.412-6.014 0-10.715 1.2573-14.104 3.772-3.28 2.5147-4.92 6.068-4.92 10.66 0 3.28.874 5.959 2.624 8.036 1.749 2.077 4.373 3.991 7.872 5.74 3.498 1.64 8.91 3.772 16.236 6.396 7.762 2.952 13.94 5.631 18.532 8.036 4.701 2.405 8.692 5.795 11.972 10.168 3.389 4.264 5.084 9.621 5.084 16.072 0 9.84-3.663 17.657-10.988 23.452-7.216 5.795-17.111 8.692-29.684 8.692z" fill="#fff"/><g stroke="#20dbcd"><path d="m90 33 77.942 45v90l-77.942 45-77.9423-45v-90z" stroke-width="8"/><path d="m90 33 38.971 22.5v45l-38.971 22.5-38.9711-22.5v-45z" stroke-width="4"/><path d="m90 123 38.971 22.5v45l-38.971 22.5-38.9711-22.5v-45z" stroke-width="4"/><path d="m129 77 38.971 22.5v45l-38.971 22.5-38.9711-22.5v-45z" stroke-width="4"/><path d="m51 55 38.9711 22.5v45l-38.9711 22.5-38.9711-22.5v-45z" stroke-width="4"/><path d="m129 100 38.971 22.5v45l-38.971 22.5-38.9711-22.5v-45z" stroke-width="4"/></g></svg>